#!OML:ASF X:\für Bonn\!DataBase\2005_08_10_Bjorn_Final\c3d\bjorn.ASF
:FULLY-SPECIFIED
:DEGREES
79
root -10.2098 18.3792 0.644231 397.842 95.0506 401.695
lowerback 3.2642 -1.35504 8.5193
upperback 16.6212 -1.29297 2.06073
thorax 16.7155 0.901825 -2.33445
lowerneck 10.4544 1.03061 0.359316
upperneck -5.61771 0.899263 -7.36306
head -3.70253 0.808426 -2.60781
rclavicle -8.74653e-015 1.19271e-014
rhumerus -22.9678 -19.9849 -82.5087
rradius 43.9628
rwrist 2.39347
rhand -8.06444 13.7453
rfingers 7.12502
rthumb 17.8468 -15.4558
lclavicle -8.74653e-015 1.19271e-014
lhumerus -22.5333 -3.59603 82.4857
lradius 49.8813
lwrist -11.9695
lhand -40.9338 -11.8283
lfingers 7.12502
lthumb -13.8678 17.6893
rfemur 3.27996 -1.54759 20.8302
rtibia 33.5281
rfoot -28.461 12.0746
rtoes -14.3787
lfemur -29.2842 2.89503 -5.10956
ltibia 25.3717
lfoot 15.256 -2.21122
ltoes -6.51763
80
root -10.1352 18.3845 0.606683 398.584 95.0558 402.247
lowerback 3.1878 -1.29886 8.31757
upperback 16.5567 -1.21567 1.98432
thorax 16.682 0.909113 -2.30772
lowerneck 10.4351 0.760495 0.275273
upperneck -5.70585 0.564736 -6.68199
head -3.73952 0.610725 -2.3366
rclavicle -7.55382e-015 -4.77083e-015
rhumerus -23.0836 -20.0786 -82.5467
rradius 43.8434
rwrist 2.57929
rhand -8.11254 13.7786
rfingers 7.12502
rthumb 17.8006 -15.4267
lclavicle -7.55382e-015 -4.77083e-015
lhumerus -22.5576 -3.58159 82.3802
lradius 49.9339
lwrist -12.0142
lhand -40.8999 -11.8638
lfingers 7.12502
lthumb -13.8352 17.6561
rfemur 3.56812 -1.45209 20.777
rtibia 33.0761
rfoot -28.4104 12.0516
rtoes -14.5746
lfemur -29.3275 2.84164 -5.10891
ltibia 25.6292
lfoot 14.7958 -2.51601
ltoes -6.22327
81
root -10.0596 18.3909 0.569341 399.536 95.0757 403.009
lowerback 3.1127 -1.24651 8.0795
upperback 16.5002 -1.14295 1.93441
thorax 16.6577 0.907477 -2.23062
lowerneck 10.4068 0.473201 0.157302
upperneck -5.79957 0.205539 -5.99455
head -3.77499 0.40157 -2.05666
rclavicle 2.22639e-014 -7.95139e-016
rhumerus -23.1395 -20.1465 -82.5639
rradius 43.672
rwrist 2.72223
rhand -8.1571 13.805
rfingers 7.12502
rthumb 17.7577 -15.4042
lclavicle 2.22639e-014 -7.95139e-016
lhumerus -22.545 -3.45568 82.2808
lradius 49.9375
lwrist -12.1992
lhand -40.8722 -11.969
lfingers 7.12502
lthumb -13.8085 17.5527
rfemur 3.85484 -1.34966 20.7542
rtibia 32.6216
rfoot -28.3601 12.0112
rtoes -14.8056
lfemur -29.3964 2.83399 -5.10337
ltibia 25.9467
lfoot 14.2497 -2.79414
ltoes -6.10589
82
root -9.98394 18.3973 0.530318 400.573 95.1185 403.859
lowerback 3.05866 -1.20366 7.87357
upperback 16.4349 -1.08179 1.8782
thorax 16.6069 0.904422 -2.17969
lowerneck 10.4263 0.176935 0.0195974
upperneck -5.93349 -0.165059 -5.25554
head -3.83125 0.185959 -1.75724
rclavicle 7.95139e-015 5.56597e-015
rhumerus -23.2269 -20.2604 -82.5698
rradius 43.5037
rwrist 2.97276
rhand -8.15548 13.871
rfingers 7.12502
rthumb 17.7592 -15.3381
lclavicle 7.95139e-015 5.56597e-015
lhumerus -22.5447 -3.33235 82.1822
lradius 49.948
lwrist -12.3269
lhand -40.8415 -12.0513
lfingers 7.12502
lthumb -13.7789 17.4724
rfemur 4.14857 -1.26629 20.745
rtibia 32.1681
rfoot -28.3344 11.9415
rtoes -15.2375
lfemur -29.4882 2.87854 -5.11025
ltibia 26.3058
lfoot 13.6395 -3.09613
ltoes -6.2738
83
root -9.90776 18.403 0.490162 401.847 95.1688 404.936
lowerback 2.99727 -1.16759 7.64306
upperback 16.3662 -1.03227 1.84688
thorax 16.5551 0.889625 -2.08818
lowerneck 10.4433 -0.127773 -0.161025
upperneck -6.04975 -0.547566 -4.49792
head -3.87772 -0.0357596 -1.44341
rclavicle -4.77083e-015 8.74653e-015
rhumerus -23.3048 -20.2729 -82.5552
rradius 43.3134
rwrist 3.11747
rhand -8.18891 13.9598
rfingers 7.12502
rthumb 17.7271 -15.2521
lclavicle -4.77083e-015 8.74653e-015
lhumerus -22.5402 -3.1321 82.1002
lradius 49.9321
lwrist -12.5394
lhand -40.8295 -12.151
lfingers 7.12502
lthumb -13.7673 17.3735
rfemur 4.4243 -1.16114 20.7589
rtibia 31.722
rfoot -28.2872 11.8738
rtoes -15.6279
lfemur -29.6108 2.97509 -5.1204
ltibia 26.7065
lfoot 12.988 -3.38962
ltoes -6.76233
84
root -9.83114 18.4076 0.449954 402.773 95.2229 405.652
lowerback 2.92752 -1.12711 7.38379
upperback 16.2876 -0.976693 1.81809
thorax 16.4959 0.872711 -1.97768
lowerneck 10.5065 -0.451328 -0.401463
upperneck -6.17742 -0.956425 -3.66876
head -3.93356 -0.272062 -1.09392
rclavicle 3.97569e-015 -1.03368e-014
rhumerus -23.4441 -20.282 -82.5039
rradius 43.1663
rwrist 3.33978
rhand -8.24596 14.0105
rfingers 7.12502
rthumb 17.6722 -15.2064
lclavicle 3.97569e-015 -1.03368e-014
lhumerus -22.5348 -2.94257 82.0352
lradius 49.8783
lwrist -12.7253
lhand -40.8308 -12.2736
lfingers 7.12502
lthumb -13.7685 17.2508
rfemur 4.69275 -1.02725 20.7611
rtibia 31.2871
rfoot -28.229 11.8028
rtoes -15.887
lfemur -29.7686 3.07434 -5.16845
ltibia 27.1344
lfoot 12.3078 -3.67546
ltoes -7.50216
85
root -9.75452 18.4123 0.409007 403.577 95.2551 406.257
lowerback 2.90204 -1.08638 7.10313
upperback 16.2012 -0.913198 1.77317
thorax 16.3975 0.857028 -1.87318
lowerneck 10.6028 -0.776708 -0.659398
upperneck -6.30624 -1.36502 -2.80272
head -3.99228 -0.509752 -0.729166
rclavicle 1.59028e-014 3.85642e-014
rhumerus -23.6322 -20.307 -82.4503
rradius 43.0306
rwrist 3.51013
rhand -8.25225 14.1132
rfingers 7.12502
rthumb 17.6661 -15.1042
lclavicle 1.59028e-014 3.85642e-014
lhumerus -22.5469 -2.78119 81.9464
lradius 49.8602
lwrist -12.8452
lhand -40.7992 -12.3326
lfingers 7.12502
lthumb -13.7381 17.1939
rfemur 4.95328 -0.907066 20.7322
rtibia 30.8765
rfoot -28.1662 11.7209
rtoes -16.3636
lfemur -29.9236 3.20451 -5.24828
ltibia 27.5906
lfoot 11.5951 -3.96968
ltoes -8.35901
86
root -9.67662 18.4159 0.367279 404.292 95.2624 406.783
lowerback 2.90578 -1.05264 6.77873
upperback 16.1151 -0.854116 1.73198
thorax 16.2793 0.832805 -1.74075
lowerneck 10.6871 -1.09108 -0.989635
upperneck -6.40266 -1.76199 -1.89632
head -4.03205 -0.742662 -0.338476
rclavicle -2.94201e-014 -5.28767e-014
rhumerus -23.819 -20.2375 -82.389
rradius 42.8983
rwrist 3.62007
rhand -8.31465 14.1613
rfingers 7.12502
rthumb 17.6061 -15.0616
lclavicle -2.94201e-014 -5.28767e-014
lhumerus -22.5591 -2.63764 81.8702
lradius 49.8108
lwrist -12.9367
lhand -40.8329 -12.42
lfingers 7.12502
lthumb -13.7706 17.1043
rfemur 5.2119 -0.737023 20.6867
rtibia 30.4954
rfoot -28.1098 11.6062
rtoes -16.8889
lfemur -30.0693 3.38824 -5.37582
ltibia 28.0544
lfoot 10.8842 -4.23371
ltoes -9.01528
87
root -9.59878 18.4193 0.324812 404.977 95.3049 407.257
lowerback 2.895 -1.0113 6.51388
upperback 16.0329 -0.786205 1.66593
thorax 16.1779 0.824851 -1.66758
lowerneck 10.7524 -1.43599 -1.21337
upperneck -6.52552 -2.18472 -1.01304
head -4.07539 -0.990252 0.0275017
rclavicle 1.49089e-014 6.75868e-015
rhumerus -23.9857 -20.3018 -82.3647
rradius 42.7343
rwrist 3.82603
rhand -8.33154 14.2437
rfingers 7.12502
rthumb 17.5898 -14.9806
lclavicle 1.49089e-014 6.75868e-015
lhumerus -22.4847 -2.51779 81.7414
lradius 49.7095
lwrist -13.0673
lhand -40.8207 -12.4088
lfingers 7.12502
lthumb -13.7589 17.1163
rfemur 5.43576 -0.604745 20.6543
rtibia 30.1553
rfoot -28.0296 11.5393
rtoes -17.2076
lfemur -30.2625 3.62158 -5.50603
ltibia 28.5351
lfoot 10.1963 -4.61253
ltoes -9.89406
88
root -9.52093 18.4229 0.283184 405.421 95.3384 407.489
lowerback 2.88856 -0.943877 6.22837
upperback 15.9535 -0.678788 1.58481
thorax 16.0805 0.835223 -1.59541
lowerneck 10.7529 -1.80464 -1.36601
upperneck -6.58551 -2.62472 -0.130065
head -4.08024 -1.24937 0.381299
rclavicle 3.97569e-016 2.90226e-014
rhumerus -24.1741 -20.4373 -82.3472
rradius 42.6096
rwrist 4.0073
rhand -8.3347 14.3193
rfingers 7.12502
rthumb 17.5868 -14.9052
lclavicle 3.97569e-016 2.90226e-014
lhumerus -22.3744 -2.61646 81.5815
lradius 49.6215
lwrist -13.0151
lhand -40.8303 -12.5113
lfingers 7.12502
lthumb -13.7681 17.0132
rfemur 5.62948 -0.415665 20.6248
rtibia 29.8667
rfoot -27.9599 11.3849
rtoes -17.6792
lfemur -30.4665 3.8381 -5.64535
ltibia 29.0164
lfoot 9.54096 -4.91645
ltoes -10.4918
89
root -9.44208 18.4252 0.239525 405.767 95.3489 407.632
lowerback 2.89659 -0.854501 5.96502
upperback 15.8598 -0.539149 1.4718
thorax 15.9578 0.866082 -1.56841
lowerneck 10.8127 -2.19901 -1.44405
upperneck -6.64764 -3.08687 0.758902
head -4.09468 -1.52159 0.726547
rclavicle -1.51076e-014 -3.69739e-014
rhumerus -24.4081 -20.6608 -82.3425
rradius 42.4756
rwrist 4.20516
rhand -8.29997 14.4192
rfingers 7.12502
rthumb 17.6202 -14.8024
lclavicle -1.51076e-014 -3.69739e-014
lhumerus -22.2806 -2.74568 81.3975
lradius 49.5167
lwrist -13.0018
lhand -40.8378 -12.5401
lfingers 7.12502
lthumb -13.7754 16.9839
rfemur 5.80873 -0.272756 20.5452
rtibia 29.6394
rfoot -27.9098 11.2422
rtoes -18.3702
lfemur -30.6552 4.05147 -5.81869
ltibia 29.5038
lfoot 8.85313 -5.25855
ltoes -11.3895
90
root -9.36353 18.4264 0.19512 406.344 95.3675 408.009
lowerback 2.89793 -0.773644 5.71087
upperback 15.7822 -0.411451 1.36249
thorax 15.8601 0.894167 -1.54239
lowerneck 10.8714 -2.5743 -1.51259
upperneck -6.74954 -3.52311 1.61435
head -4.12048 -1.77945 1.05873
rclavicle 1.90833e-014 2.18663e-015
rhumerus -24.5852 -20.7934 -82.3551
rradius 42.3446
rwrist 4.31748
rhand -8.22161 14.52
rfingers 7.12502
rthumb 17.6956 -14.6948
lclavicle 1.90833e-014 2.18663e-015
lhumerus -22.1306 -2.89606 81.2011
lradius 49.4078
lwrist -12.9346
lhand -40.8383 -12.5741
lfingers 7.12502
lthumb -13.7758 16.9498
rfemur 5.95567 -0.0753192 20.4984
rtibia 29.466
rfoot -27.8083 11.1329
rtoes -18.7569
lfemur -30.8462 4.26396 -5.95489
ltibia 29.9871
lfoot 8.20765 -5.52488
ltoes -11.9936
91
root -9.28409 18.4264 0.150935 406.511 95.3939 407.962
lowerback 2.87847 -0.722382 5.40394
upperback 15.702 -0.322721 1.24203
thorax 15.768 0.897522 -1.50367
lowerneck 10.8323 -2.93182 -1.55953
upperneck -6.73012 -3.93461 2.42103
head -4.08139 -2.02324 1.36496
rclavicle 1.37161e-014 1.37161e-014
rhumerus -24.7177 -20.8843 -82.3877
rradius 42.1488
rwrist 4.48172
rhand -8.18847 14.6395
rfingers 7.12502
rthumb 17.7275 -14.5724
lclavicle 1.37161e-014 1.37161e-014
lhumerus -21.9957 -2.98362 80.964
lradius 49.2978
lwrist -12.8022
lhand -40.8607 -12.6309
lfingers 7.12502
lthumb -13.7974 16.8915
rfemur 6.07224 0.119587 20.4387
rtibia 29.3479
rfoot -27.7453 10.9664
rtoes -19.3436
lfemur -31.0622 4.42682 -6.10646
ltibia 30.4734
lfoot 7.59094 -5.76422
ltoes -12.3972
92
root -9.20441 18.4271 0.105222 406.677 95.3874 407.936
lowerback 2.89331 -0.676493 5.05719
upperback 15.6242 -0.23646 1.1245
thorax 15.6561 0.894404 -1.43968
lowerneck 10.8375 -3.2671 -1.59148
upperneck -6.77948 -4.31915 3.16574
head -4.075 -2.25059 1.64877
rclavicle -4.47266e-015 -8.94531e-015
rhumerus -24.8237 -20.9557 -82.4025
rradius 41.9279
rwrist 4.6801
rhand -8.13352 14.7996
rfingers 7.12502
rthumb 17.7804 -14.4075
lclavicle -4.47266e-015 -8.94531e-015
lhumerus -21.8579 -3.04594 80.7529
lradius 49.1904
lwrist -12.6777
lhand -40.8829 -12.6383
lfingers 7.12502
lthumb -13.8188 16.8827
rfemur 6.20002 0.343594 20.3421
rtibia 29.2613
rfoot -27.6535 10.8501
rtoes -20.0242
lfemur -31.2467 4.57526 -6.27938
ltibia 30.9647
lfoot 6.9822 -5.94128
ltoes -12.6715
